Coordinates
version=1
nRows=19
nColumns=24
inDegrees=yes

Units are S.I. units (second, meters, Newtons, ...)
Angles are in degrees.

endheader
time	pelvis_tilt	pelvis_list	pelvis_rotation	pelvis_tx	pelvis_ty	pelvis_tz	hip_flexion_r	hip_adduction_r	hip_rotation_r	knee_angle_r	ankle_angle_r	subtalar_angle_r	mtp_angle_r	hip_flexion_l	hip_adduction_l	hip_rotation_l	knee_angle_l	ankle_angle_l	subtalar_angle_l	mtp_angle_l	lumbar_extension	lumbar_bending	lumbar_rotation
      2.23500000	      6.64125357	     11.21546254	     -5.63459515	     -0.28084339	      0.99562585	      0.00023729	     23.36398572	    -12.86818989	     -3.71283406	    -34.30529740	      6.84937524	     -3.26587176	     10.30239961	     -4.94716807	     16.21298021	    -12.89848024	    -10.65059545	      9.94897299	      1.44228663	     19.83411879	    -21.12930466	    -12.51135295	      6.11076818
      2.24000000	      6.69746965	     11.25659425	     -5.47624429	     -0.27574195	      0.99534854	      0.00021458	     23.00616277	    -12.90485556	     -4.28632595	    -32.28208381	      6.45284273	     -2.61297296	     10.00628962	     -5.45734717	     16.26888322	    -12.69538957	    -10.49737760	     10.16304907	      1.64952584	     19.72999609	    -21.19119918	    -12.52633357	      5.93646221
      2.24500000	      6.75857966	     11.31188124	     -5.31631737	     -0.27064165	      0.99502309	      0.00021048	     22.62430567	    -12.95154085	     -4.88545122	    -30.23666321	      6.03157120	     -1.88772441	      9.66322561	     -5.96388477	     16.33457977	    -12.49661171	    -10.36419708	     10.42337044	      1.84958858	     19.57034482	    -21.26205340	    -12.55799147	      5.76884657
      2.25000000	      6.75878702	     11.42060324	     -5.11828332	     -0.26555267	      0.99455139	      0.00021808	     22.30104958	    -13.04753467	     -5.50960958	    -28.19600967	      5.61031000	     -1.06594150	      9.45401377	     -6.39338208	     16.43625214	    -12.28787478	    -10.25536536	     10.66980312	      2.08820563	     19.47544078	    -21.27654175	    -12.63834367	      5.47441110
      2.25500000	      6.76993265	     11.51129570	     -4.92515706	     -0.26043150	      0.99406029	      0.00025782	     21.93143368	    -13.11073518	     -6.13697272	    -26.12242903	      5.16666085	     -0.17979486	      9.26452369	     -6.83942241	     16.51660920	    -12.06340945	    -10.14678938	     10.92536565	      2.30418941	     19.36467042	    -21.29851029	    -12.70276500	      5.23370038
      2.26000000	      6.78221383	     11.61214642	     -4.73296665	     -0.25529625	      0.99353069	      0.00034144	     21.54342211	    -13.17043283	     -6.76355351	    -24.04216064	      4.71373402	      0.76356461	      9.08903499	     -7.28945677	     16.60161923	    -11.83988566	    -10.03464744	     11.17804406	      2.51936670	     19.22886439	    -21.32438756	    -12.78162332	      4.97752957
      2.26500000	      6.79832493	     11.72169443	     -4.53964875	     -0.25015098	      0.99295495	      0.00046008	     21.13809871	    -13.22651426	     -7.38694119	    -21.96863223	      4.25711858	      1.76364619	      8.93010758	     -7.74268951	     16.68961520	    -11.61453406	     -9.92751585	     11.42603953	      2.72757474	     19.06399251	    -21.35544312	    -12.87209233	      4.71065145
      2.27000000	      6.80484084	     11.83051295	     -4.33503458	     -0.24500375	      0.99234471	      0.00062531	     20.72419408	    -13.26604548	     -7.99998503	    -19.90031133	      3.79153582	      2.80128202	      8.77697728	     -8.17960006	     16.76579026	    -11.37457224	     -9.83999112	     11.66865630	      2.93043300	     18.84496774	    -21.38142245	    -12.96415647	      4.43559124
      2.27500000	      6.75281718	     11.99758681	     -4.12889301	     -0.23991803	      0.99153597	      0.00079700	     20.42161949	    -13.35448058	     -8.57586233	    -17.93394829	      3.33994787	      3.91067996	      8.68994136	     -8.52543462	     16.89252472	    -11.14225168	     -9.79720614	     11.99529663	      3.16223944	     18.72124934	    -21.34929910	    -13.11841233	      4.12836111
      2.28000000	      6.75785746	     12.13164028	     -3.92373754	     -0.23474595	      0.99081603	      0.00100377	     20.01927571	    -13.40254336	     -9.15861520	    -15.97363101	      2.90495714	      5.02424800	      8.60457455	     -8.96053445	     16.98573670	    -10.89521616	     -9.71436968	     12.22438717	      3.34549075	     18.52658994	    -21.37668491	    -13.23734213	      3.82012651
      2.28500000	      6.61031826	     12.28461873	     -3.71711964	     -0.22958965	      0.98981867	      0.00123890	     19.82892811	    -13.44086868	     -9.66401239	    -14.13875021	      2.47154257	      6.11178365	      8.55249636	     -9.20619761	     17.08403889	    -10.68266657	     -9.67492496	     12.52886127	      3.57254185	     18.45169269	    -21.22891800	    -13.38279177	      3.57614931
      2.29000000	      6.69020730	     12.44845209	     -3.52171793	     -0.22441857	      0.98911768	      0.00148555	     19.37687022	    -13.51724302	    -10.21235970	    -12.35499392	      2.08922352	      7.23482058	      8.47373677	     -9.72217872	     17.20728242	    -10.38627670	     -9.59636177	     12.77768095	      3.68112574	     18.18997035	    -21.34866348	    -13.53582076	      3.20973695
      2.29500000	      6.59849105	     12.63494177	     -3.32631360	     -0.21928184	      0.98809676	      0.00175040	     19.18253439	    -13.59311378	    -10.66900667	    -10.75730834	      1.75454159	      8.31429206	      8.41587413	    -10.02119726	     17.33861182	    -10.14295840	     -9.57133692	     13.11253915	      3.88200001	     18.04723330	    -21.27535020	    -13.71731359	      2.90230748
      2.30000000	      6.49401236	     12.79418564	     -3.13203794	     -0.21409904	      0.98706158	      0.00203261	     19.01281223	    -13.63626530	    -11.09554677	     -9.27562322	      1.45781888	      9.32892872	      8.36815086	    -10.31135410	     17.43853326	     -9.91787426	     -9.54106080	     13.36068045	      4.05445875	     17.94709556	    -21.18413813	    -13.87018445	      2.62931072
      2.30500000	      6.45103147	     12.96102383	     -2.94625572	     -0.20890617	      0.98609237	      0.00230955	     18.80981794	    -13.69966304	    -11.51356335	     -7.94783297	      1.21882531	     10.29254118	      8.31632139	    -10.67284915	     17.55079651	     -9.64920550	     -9.50506569	     13.62700189	      4.16806738	     17.82972535	    -21.16486383	    -14.02906521	      2.32537102
      2.31000000	      6.41577945	     13.11028402	     -2.76700109	     -0.20369628	      0.98512891	      0.00258805	     18.63300624	    -13.74895648	    -11.90579373	     -6.78562906	      1.03814776	     11.16183603	      8.25817822	    -11.04160520	     17.64422397	     -9.37806567	     -9.47392761	     13.89735196	      4.26915449	     17.70611725	    -21.15312854	    -14.16854259	      2.04982983
      2.31500000	      6.38796955	     13.24340392	     -2.59863174	     -0.19846301	      0.98417338	      0.00286451	     18.48880591	    -13.78811861	    -12.27084873	     -5.80352436	      0.91015067	     11.92175044	      8.19800878	    -11.41742561	     17.72237476	     -9.10283403	     -9.44552348	     14.17311664	      4.35055718	     17.57874503	    -21.14629148	    -14.28947196	      1.80504548
      2.32000000	      6.37851314	     13.35338392	     -2.43550613	     -0.19320752	      0.98324137	      0.00311052	     18.36291142	    -13.81635480	    -12.62451349	     -5.00497775	      0.84460334	     12.56742545	      8.13844342	    -11.81374492	     17.77846376	     -8.81436705	     -9.42011527	     14.45141136	      4.41129657	     17.44482704	    -21.15964377	    -14.37925697	      1.58532168
      2.32500000	      6.38496106	     13.43847109	     -2.27413057	     -0.18791411	      0.98235934	      0.00334613	     18.25215271	    -13.83144458	    -12.96839926	     -4.38775814	      0.82511110	     13.08539958	      8.08377600	    -12.22953739	     17.80778305	     -8.51962672	     -9.39437078	     14.71870759	      4.45904149	     17.31030539	    -21.18781756	    -14.43810301	      1.38429316
